<svg height='100%' width='100%'  fill="var(--primary)" xmlns="http://www.w3.org/2000/svg" viewBox="0 0 32 32" x="0px" y="0px"><title>Artist/Creator</title><g data-name="maid, man"><path d="M28,16.48V8a1,1,0,0,0-1-1H19.7A7,7,0,1,0,9.08,14.8,10,10,0,0,0,3,24v5a1,1,0,0,0,1,1H22a1,1,0,0,0,.65-.29A2.5,2.5,0,0,0,24,27.5V21h2.55A2.45,2.45,0,0,0,29,18.55v-.1A2.46,2.46,0,0,0,28,16.48ZM26,16H17V9h5v4a1,1,0,0,0,2,0V9h2ZM8,9a5,5,0,0,1,9.58-2H16a1,1,0,0,0-1,1v5.58A4.92,4.92,0,0,1,13,14,5,5,0,0,1,8,9ZM5,24a8,8,0,0,1,10-7.74v.22a2.46,2.46,0,0,0-1,2v.1A2.45,2.45,0,0,0,16.45,21H19v6.5a2.73,2.73,0,0,0,.05.5H5Zm17,3.5a.49.49,0,0,1-.3.46h0l-.17,0a.5.5,0,0,1-.5-.5V21h1Zm5-8.95a.45.45,0,0,1-.45.45H16.45a.45.45,0,0,1-.45-.45v-.1a.45.45,0,0,1,.45-.45h10.1a.45.45,0,0,1,.45.45Z"></path></g></svg>