<svg fill="#000000" xmlns="http://www.w3.org/2000/svg" xmlns:xlink="http://www.w3.org/1999/xlink" version="1.1" x="0px" y="0px" viewBox="0 0 34 34" enable-background="new 0 0 34 34" xml:space="preserve">
    <g>
        <g>
            <g>
                <path d="M20.8,32.6c0,0.6-0.4,1-1,1c0,0,0,0,0,0h-15c-0.3,0-0.7-0.2-0.9-0.5c-0.2-0.3-0.2-0.7,0-1l2-4c0.2-0.3,0.5-0.6,0.9-0.6     h11c0.4,0,0.7,0.2,0.9,0.6l1.9,3.8C20.7,32.1,20.8,32.3,20.8,32.6z"></path>
            </g>
        </g>
        <g>
            <g>
                <path d="M21.2,6.9l-1.1,1.9c-0.3,0.6-1,0.9-1.6,0.9c-0.3,0-0.6-0.1-0.9-0.2L14,15.6c0.4,0.2,0.7,0.6,0.8,1.1     c0.1,0.5,0.1,1-0.2,1.4l-1,1.7c-0.3,0.6-1,1-1.6,1c-0.3,0-0.7-0.1-1-0.3l-6.2-3.6c-0.9-0.5-1.2-1.7-0.7-2.6l1-1.7     c0.5-0.9,1.7-1.2,2.5-0.7l3.5-6.1c-0.9-0.5-1.2-1.7-0.6-2.6l1.1-1.9c0.5-0.9,1.7-1.2,2.6-0.7l6.3,3.6c0.4,0.3,0.8,0.7,0.9,1.2     C21.5,5.9,21.4,6.5,21.2,6.9z"></path>
            </g>
        </g>
        <g>
            <g>
                <path d="M29.9,20.7c-0.4,0.8-1.3,1.3-2.2,1.3c-0.4,0-0.9-0.1-1.3-0.3L16.7,16c-0.1-0.2-0.2-0.4-0.3-0.6l2.1-3.6     c0.2,0,0.4,0,0.7-0.1l9.8,5.7C30.2,18,30.6,19.5,29.9,20.7z"></path>
            </g>
        </g>
    </g>
</svg>