<svg width="14" height="14" viewBox="0 0 24 24" fill="none" xmlns="http://www.w3.org/2000/svg"><rect width="24" height="24" fill="none" rx="0" ry="0"></rect><path fill-rule="evenodd" clip-rule="evenodd" d="M19.8593 4.30292C18.922 3.36566 17.4024 3.36566 16.4652 4.30292L12.0811 8.68698L7.69703 4.30292C6.75977 3.36566 5.24018 3.36566 4.30292 4.30292C3.36566 5.24018 3.36566 6.75977 4.30292 7.69703L8.68698 12.0811L4.30292 16.4652C3.36566 17.4024 3.36566 18.922 4.30292 19.8593C5.24018 20.7965 6.75977 20.7965 7.69703 19.8593L12.0811 15.4752L16.4652 19.8593C17.4024 20.7965 18.922 20.7965 19.8593 19.8593C20.7965 18.922 20.7965 17.4024 19.8593 16.4652L15.4752 12.0811L19.8593 7.69703C20.7965 6.75977 20.7965 5.24018 19.8593 4.30292Z" fill="#ff1f1f"></path><path fill-rule="evenodd" clip-rule="evenodd" d="M17.3536 5.73225C17.7441 5.34173 18.3773 5.34173 18.7678 5.73225C19.1583 6.12278 19.1583 6.75594 18.7678 7.14647L17.6245 8.28975L15.6465 10.2678C15.2559 10.6583 14.6228 10.6583 14.2322 10.2678C13.8417 9.87726 13.8417 9.2441 14.2322 8.85357L15.8957 7.19007L17.3536 5.73225Z" fill="#96D25A" fill-opacity="0.3"></path><path fill-rule="evenodd" clip-rule="evenodd" d="M3.8945 4.0488C2.72293 5.22037 2.72293 7.11987 3.8945 8.29144L7.6104 12.0073L3.8889 15.7288C2.71733 16.9004 2.71733 18.7999 3.8889 19.9715L4.03306 20.1156C5.20464 21.2872 7.10413 21.2872 8.2757 20.1156L11.9972 16.3941L15.7187 20.1156C16.8903 21.2872 18.7898 21.2872 19.9613 20.1156L20.1055 19.9715C21.2771 18.7999 21.2771 16.9004 20.1055 15.7288L15.7127 11.336C15.4806 11.104 15.1047 11.1031 14.8716 11.334C14.6369 11.5663 14.6359 11.9452 14.8692 12.1788L14.8695 12.1792L16.4228 13.7324L19.1933 16.5029C19.939 17.2486 19.939 18.4577 19.1933 19.2034C18.4475 19.9491 17.2385 19.9491 16.4927 19.2034L11.998 14.7087L7.50334 19.2034C6.75761 19.9491 5.54855 19.9491 4.80283 19.2034C4.0571 18.4577 4.0571 17.2486 4.80283 16.5029L9.29753 12.0082L4.80675 7.51739C4.06102 6.77167 4.06102 5.56261 4.80675 4.81688C5.55247 4.07116 6.76153 4.07116 7.50726 4.81688L10.7874 8.09705L11.8327 9.14233C12.0652 9.37481 12.442 9.37521 12.675 9.14321C12.9086 8.91052 12.909 8.53235 12.6759 8.29918L8.2813 3.90463C7.10973 2.73306 5.21024 2.73306 4.03866 3.90464L3.8945 4.0488ZM15.7249 3.90464C16.8964 2.73306 18.7959 2.73306 19.9675 3.90463L20.1117 4.0488C21.2832 5.22037 21.2832 7.11987 20.1117 8.29144L17.515 10.8881C17.2825 11.1206 16.9054 11.1206 16.6729 10.8881C16.4403 10.6555 16.4403 10.2784 16.6729 10.0459L19.0131 7.70613L19.0115 7.7047L19.1989 7.51739C19.9446 6.77167 19.9446 5.56261 19.1989 4.81688C18.4531 4.07116 17.2441 4.07116 16.4983 4.81688L14.9273 6.38795C14.6925 6.58379 14.3431 6.57139 14.1229 6.35121C13.8897 6.11798 13.8897 5.73984 14.1229 5.50661L15.7249 3.90464Z" fill="#000000"></path></svg>