<svg fill="#000000" xmlns="http://www.w3.org/2000/svg" viewBox="0 0 36 36" x="0px" y="0px"><title>Монтажная область 50</title><path d="M12.64575,6.138l.40845.40845a3.22954,3.22954,0,0,1,.0332-.4527A5.05633,5.05633,0,0,1,14.56665,2.9696L16.66418.87207A3.3227,3.3227,0,0,0,14.4563,0,3.30088,3.30088,0,0,0,12.138,5.63013Z"></path><path d="M22.92358,6.09375a3.18242,3.18242,0,0,1,.0221.4527l.41955-.40845.50782-.50787A3.28386,3.28386,0,0,0,19.3468.87207L21.44434,2.9696A5.116,5.116,0,0,1,22.92358,6.09375Z"></path><path d="M15.00824,5.97235a3.21063,3.21063,0,0,0,.16565,1.87677,3.15491,3.15491,0,0,0,.72858,1.10394A3.19218,3.19218,0,0,0,18,9.89142a3.21873,3.21873,0,0,0,2.10852-.93836,3.31547,3.31547,0,0,0,.72864-1.10394,3.21118,3.21118,0,0,0,.16559-1.87677,3.17081,3.17081,0,0,0-.89423-1.678L18,2.18579,15.90247,4.29431A3.16985,3.16985,0,0,0,15.00824,5.97235Z"></path><path d="M6.05518,12.91626a31.10885,31.10885,0,0,0,4.60345.98248A55.5018,55.5018,0,0,0,18,14.36249a55.55028,55.55028,0,0,0,7.35229-.46375,31.42776,31.42776,0,0,0,4.60352-.98248c2.04236-.62921,3.09113-1.33575,3.09113-1.84363,0-.85-3.12421-2.34039-8.98621-2.96966l-2.18585,2.18591a5.15778,5.15778,0,0,1-3.65405,1.51239A1.523,1.523,0,0,1,18,11.76813a1.19076,1.19076,0,0,1-.20978.03314,5.2017,5.2017,0,0,1-3.6651-1.51239L11.95026,8.103c-5.862.62927-8.9972,2.11969-8.9972,2.96966C2.95306,11.58051,4.01282,12.28705,6.05518,12.91626Z"></path><path d="M29.95581,14.87024A46.15234,46.15234,0,0,1,18,16.25018,46.00569,46.00569,0,0,1,6.05518,14.87024a14.55008,14.55008,0,0,1-2.59436-.9715c-.18763-.08825-.34223-.17657-.50776-.265v3.08c0,1.12609,5.32111,3.28985,15.04694,3.28985,9.73688,0,15.04694-2.16376,15.04694-3.28985v-3.08q-.23191.13257-.49683.265A14.54818,14.54818,0,0,1,29.95581,14.87024Z"></path><path d="M2.95306,19.275V32.69916C2.95306,33.82513,8.27417,36,18,36c9.73688,0,15.04694-2.17487,15.04694-3.30084V19.275C30.03308,21.05243,23.862,21.89142,18,21.89142,12.14905,21.89142,5.97791,21.05243,2.95306,19.275Z"></path></svg>