<svg width="100%" height="100%" viewBox="0 0 24 24" fill="none" xmlns="http://www.w3.org/2000/svg"><rect width="24" height="24" fill="none" rx="0" ry="0"></rect><path fill-rule="evenodd" clip-rule="evenodd" d="M18.5 15.0018C19.33 15.0018 20 15.6718 20 16.5018C20 17.3318 19.33 18.0018 18.5 18.0018H16H18C18.83 18.0018 19.5 18.6718 19.5 19.5018C19.5 20.3318 18.83 21.0018 18 21.0018H17H9C5.69 21.0018 3 18.3018 3 14.9818C3 12.2818 4.77 9.9918 7.22 9.2318C8.45 8.8418 9.37 7.8018 9.77 6.5618L10.69 3.7318C10.85 3.0818 11.51 2.9118 12.17 3.0318C13.22 3.2118 14.11 4.5618 14.11 7.0018L14 9.0018H19.5C20.33 9.0018 21 9.6718 21 10.5018C21 11.3318 20.33 12.0018 19.5 12.0018H17H19C19.83 12.0018 20.5 12.6718 20.5 13.5018C20.5 14.3318 19.83 15.0018 19 15.0018H16.5" fill="var(--primary)"></path></svg>