<svg width="100%" height="100%" viewBox="0 0 24 24" fill="none" xmlns="http://www.w3.org/2000/svg"><rect width="24" height="24" fill="none" rx="0" ry="0"></rect><path fill-rule="evenodd" clip-rule="evenodd" d="M21.21 12.3208C21.69 11.8708 22 11.2208 22 10.5008C22 9.12082 20.88 8.00082 19.5 8.00082H15.05L15.1 7.00082C15.1 3.70082 13.67 2.28082 12.33 2.05082C11.05 1.83082 9.99 2.40082 9.74 3.42082L8.82 6.25082C8.5 7.24082 7.79 7.99082 6.92 8.27082C3.98 9.19082 2 11.8808 2 14.9708C2 18.8508 5.14 22.0008 9 22.0008H18C19.38 22.0008 20.5 20.8808 20.5 19.5008C20.5 19.0808 20.39 18.6808 20.21 18.3308C20.69 17.8708 21 17.2208 21 16.5008C21 16.0808 20.89 15.6808 20.71 15.3308C21.2 14.8708 21.5 14.2208 21.5 13.5008C21.5 13.0808 21.39 12.6708 21.21 12.3208ZM19.5 11.0008H17C16.45 11.0008 16 11.4508 16 12.0008C16 12.5508 16.45 13.0008 17 13.0008H19C19.28 13.0008 19.5 13.2208 19.5 13.5008C19.5 13.7808 19.28 14.0008 19 14.0008H16.5C15.95 14.0008 15.5 14.4508 15.5 15.0008C15.5 15.5508 15.95 16.0008 16.5 16.0008H18.5C18.78 16.0008 19 16.2208 19 16.5008C19 16.7808 18.78 17.0008 18.5 17.0008H16C15.45 17.0008 15 17.4508 15 18.0008C15 18.5508 15.45 19.0008 16 19.0008H18C18.28 19.0008 18.5 19.2208 18.5 19.5008C18.5 19.7808 18.28 20.0008 18 20.0008H9C6.24 20.0008 4 17.7508 4 14.9808C4 12.7708 5.41 10.8408 7.51 10.1808C9 9.71082 10.2 8.48082 10.72 6.87082L11.61 4.03082C11.63 4.02082 11.69 4.00082 11.8 4.00082C11.85 4.00082 11.92 4.00082 12 4.02082C12.43 4.09082 13.11 4.97082 13.11 6.95082L13 8.95082C12.99 9.22082 13.08 9.49082 13.27 9.69082C13.46 9.89082 13.73 10.0008 14 10.0008H19.5C19.78 10.0008 20 10.2208 20 10.5008C20 10.7808 19.78 11.0008 19.5 11.0008Z" fill="#ff5bb0"></path></svg>