<svg width="24" height="24" viewBox="0 0 24 24" fill="none" xmlns="http://www.w3.org/2000/svg"><rect width="24" height="24" fill="none" rx="0" ry="0"></rect><path fill-rule="evenodd" clip-rule="evenodd" d="M12.3701 14.3C12.2701 14.3 12.1801 14.28 12.0901 14.23L2.69006 9.32999C2.49006 9.22999 2.37006 9.01999 2.37006 8.79999C2.37006 8.57999 2.49006 8.36999 2.69006 8.26999L12.0901 3.36999C12.2601 3.27999 12.4701 3.27999 12.6401 3.36999L22.0401 8.26999C22.2501 8.36999 22.3701 8.57999 22.3701 8.79999C22.3701 9.01999 22.2501 9.22999 22.0501 9.32999L12.6501 14.23C12.5601 14.28 12.4701 14.3 12.3701 14.3ZM4.27006 8.79999L12.3701 13.02L20.4701 8.79999L12.3701 4.57999L4.27006 8.79999ZM12.37 17.5C12.2699 17.5 12.18 17.48 12.09 17.43L2.68995 12.53C2.39995 12.38 2.28995 12.02 2.43995 11.72C2.58995 11.43 2.95995 11.31 3.24995 11.47L12.37 16.22L21.49 11.46C21.78 11.31 22.15 11.42 22.3 11.71C22.45 12 22.34 12.37 22.05 12.52L12.65 17.42C12.5599 17.48 12.47 17.5 12.37 17.5ZM12.09 20.63C12.18 20.68 12.27 20.7 12.37 20.7C12.47 20.7 12.56 20.68 12.65 20.62L22.05 15.72C22.34 15.57 22.45 15.2 22.3 14.91C22.15 14.62 21.78 14.51 21.49 14.66L12.37 19.42L3.24997 14.67C2.95997 14.51 2.58997 14.63 2.43997 14.92C2.27997 15.21 2.39997 15.58 2.68997 15.73L12.09 20.63Z  " fill="#1ebbcc"></path></svg>