<svg width="30px" height="30px"  fill="#000000" xmlns="http://www.w3.org/2000/svg" xmlns:xlink="http://www.w3.org/1999/xlink" version="1.1" x="0px" y="0px" viewBox="0 0 512 512" style="enable-background:new 0 0 512 512;" xml:space="preserve"><g><g><path d="M377.188,310.905c41.994-24.242,57.86-76.623,37.607-119.788L168.802,333.153c17.812,24.193,46.493,38.863,77.124,38.863    c16.594,0,32.957-4.379,47.323-12.663l1.311-0.757c0.082-0.052,0.158-0.109,0.243-0.158l75.978-43.834L377.188,310.905z"></path><polygon points="391.676,150.619 145.076,292.99 164.409,326.451 411.004,184.07   "></polygon><path d="M335.819,53.623c-1.837,4.565-5.238,8.65-9.943,11.377c-3.595,2.078-7.645,3.176-11.714,3.176    c-1.06,0-2.103-0.072-3.122-0.212l6.215,10.75c2.65,4.575,3.324,10.018,1.897,15.321c-1.495,5.557-5.216,10.453-10.255,13.527    c-0.173,0.146-0.358,0.275-0.557,0.39c-3.564,2.04-7.585,3.119-11.626,3.119c-5.309,0-10.178-1.789-13.883-4.966    c-1.677,5.12-5.277,9.76-10.445,12.757c-3.592,2.055-7.617,3.134-11.662,3.135c-1.082,0-2.145-0.074-3.184-0.22l14.914,25.851    c2.653,4.576,3.33,10.023,1.902,15.33c-1.551,5.756-5.496,10.805-10.826,13.853c-3.558,2.063-7.599,3.16-11.664,3.16    c-7.496,0-14.121-3.587-17.821-9.622c-1.837,4.569-5.24,8.657-9.943,11.387c-3.597,2.078-7.642,3.175-11.706,3.175    c-1.057,0-2.096-0.071-3.112-0.211c5.35,9.902,1.303,22.703-9.186,28.771c-3.574,2.051-7.59,3.131-11.625,3.131    c-7.68,0-14.442-3.757-18.089-10.049l-4.653-8.048c-1.903,4.71-5.438,8.77-9.977,11.372c-3.421,1.977-7.104,2.981-10.934,2.982    c-1.579,0-3.063-0.169-4.429-0.431c0.349,0.583,0.712,1.188,1.086,1.812c3.028,5.05,7.175,11.965,12.931,21.946    c2.655,4.578,3.334,10.027,1.905,15.334c-1.549,5.754-5.495,10.801-10.825,13.848c-3.555,2.063-7.596,3.161-11.664,3.161    c-1.068,0-2.116-0.08-3.143-0.222l10.286,17.816l246.81-142.491L335.819,53.623z"></path><path d="M141.498,258.435c3.517-2.01,6.093-5.283,7.092-8.994c0.871-3.234,0.478-6.52-1.105-9.25    c-5.727-9.931-9.854-16.812-12.867-21.837c-6.382-10.642-7.049-11.754-5.561-14.383c0.769-1.358,2.188-2.17,3.795-2.17    c1.197,0,2.237,0.43,3.677,1.022c1.965,0.811,4.936,2.035,8.292,2.035c2.441-0.001,4.712-0.627,6.944-1.916    c3.5-2.007,6.075-5.287,7.077-9.006c0.871-3.231,0.484-6.511-1.088-9.234c-0.001-0.002-0.002-0.003-0.003-0.005    c0-0.001-0.001-0.002-0.001-0.002c0-0.002-0.002-0.004-0.004-0.007c-0.001-0.002-0.002-0.003-0.003-0.005    c-0.002-0.002-0.002-0.004-0.003-0.006s-0.002-0.004-0.003-0.006c-0.002-0.002-0.002-0.005-0.003-0.005    c0-0.001-0.001-0.002-0.001-0.004c-0.001,0-0.002-0.003-0.003-0.005s-0.002-0.004-0.003-0.006s-0.002-0.004-0.003-0.006    s-0.001-0.004-0.003-0.006c0,0-0.001-0.003-0.003-0.005c0-0.002-0.002-0.004-0.003-0.006l-0.001-0.002    c-0.002-0.004-0.002-0.005-0.003-0.007s-0.002-0.003-0.003-0.005c0-0.001-0.001-0.002-0.002-0.004    c-0.001,0-0.001-0.002-0.003-0.006l0-0.001c-0.001-0.002-0.003-0.006-0.003-0.006c-0.001-0.002-0.002-0.004-0.003-0.006    c-0.001-0.001-0.003-0.002-0.003-0.006c-0.001-0.001-0.001-0.002-0.002-0.004c0,0-0.001-0.001-0.001-0.001    c-0.001-0.002-0.001-0.003-0.002-0.005l0-0.001c-0.002-0.004-0.002-0.004-0.003-0.006c-0.001-0.001-0.001-0.003-0.003-0.006    c0-0.002,0-0.005-0.003-0.005c0-0.002-0.001-0.003-0.002-0.005c0,0,0-0.001,0-0.001c-0.001-0.002-0.002-0.003-0.002-0.005    c0,0.001-0.001-0.003-0.003-0.005c0-0.001-0.001-0.002-0.001-0.002c-0.002-0.004-0.003-0.004-0.003-0.006    c-0.001-0.002-0.003-0.004-0.003-0.006c-0.001-0.001-0.003-0.005-0.003-0.005c-0.001-0.002-0.001-0.003-0.002-0.005l-0.001-0.001    c-0.001-0.002-0.001-0.003-0.002-0.005c0,0,0-0.001-0.001-0.001c-0.001-0.004-0.002-0.004-0.003-0.006s-0.002-0.004-0.003-0.006    s-0.002-0.004-0.003-0.006c-0.001-0.001-0.002-0.006-0.002-0.006c-0.001-0.001-0.001-0.002-0.002-0.004l0-0.001    c-0.001-0.002-0.001-0.003-0.002-0.005l0-0.001c0,0-0.001-0.003-0.002-0.005l0-0.001c-0.002-0.004-0.002-0.004-0.003-0.006    s-0.002-0.004-0.002-0.006c-0.002-0.002-0.003-0.005-0.003-0.005c-0.001-0.002-0.001-0.004-0.002-0.005    c0,0-0.002-0.004-0.002-0.006c0,0,0-0.001,0-0.001c-0.001-0.002-0.002-0.003-0.002-0.005c0,0,0-0.001,0-0.001    c-0.001-0.002-0.002-0.003-0.002-0.005c0,0-0.001-0.003-0.002-0.005c0-0.001-0.001-0.002-0.001-0.002    c-0.001-0.002-0.002-0.004-0.002-0.006c-0.001-0.001-0.003-0.004-0.003-0.006c-0.002-0.002-0.002-0.005-0.002-0.005    c-0.001-0.002-0.001-0.004-0.002-0.005c0,0-0.001-0.004-0.002-0.006c0,0,0-0.001,0-0.001c-0.001-0.002-0.002-0.003-0.002-0.005    l0-0.001c-0.001-0.002-0.001-0.003-0.002-0.005c0,0-0.001-0.002-0.002-0.006l0-0.001c-0.001-0.002-0.001-0.003-0.002-0.005    c-0.001,0-0.002-0.003-0.003-0.005c0-0.002-0.001-0.005-0.002-0.006c-0.001-0.002-0.001-0.004-0.003-0.006    c0-0.002-0.002-0.004-0.002-0.006c-0.001-0.002-0.001-0.004-0.002-0.006s-0.002-0.004-0.003-0.006l0-0.001    c-0.001-0.002-0.001-0.003-0.002-0.005c-0.001,0-0.001-0.002-0.002-0.006c-0.001,0,0-0.002-0.003-0.006l0-0.001    c-0.001-0.002-0.001-0.003-0.002-0.005l-0.001-0.001c-0.001-0.004-0.001-0.006-0.002-0.006c-0.001-0.004-0.002-0.006-0.002-0.006    c-0.001-0.004-0.003-0.006-0.002-0.006c0-0.002-0.002-0.004-0.002-0.006c-0.002-0.002-0.002-0.006-0.003-0.006    c-0.001-0.004-0.001-0.004-0.002-0.006s-0.001-0.004-0.002-0.006s-0.002-0.004-0.002-0.006c0-0.001-0.001-0.002-0.001-0.004    s-0.002-0.004-0.003-0.006c0,0,0-0.002-0.002-0.006c0,0-0.001-0.002-0.002-0.006c0,0,0-0.003-0.002-0.006    c0,0-0.001-0.002-0.002-0.006c0,0-0.002-0.002-0.002-0.006c0,0-0.001-0.003-0.002-0.005s-0.002-0.004-0.002-0.006    c-0.001-0.002-0.001-0.004-0.002-0.006c0-0.002-0.001-0.003-0.002-0.006c-0.001-0.002-0.001-0.004-0.002-0.006    s-0.001-0.004-0.002-0.006s-0.001-0.004-0.002-0.006c0-0.002-0.001-0.004-0.002-0.006c0-0.002-0.001-0.004-0.002-0.006    s-0.001-0.004-0.002-0.006s-0.001-0.004-0.002-0.006s-0.001-0.004-0.002-0.006c0-0.002-0.002-0.004-0.002-0.006    c0-0.003-0.001-0.004-0.002-0.006s-0.001-0.004-0.002-0.006c0,0-0.001-0.004-0.002-0.006s-0.001-0.004-0.002-0.006    c-0.001-0.003-0.001-0.004-0.002-0.006c0-0.001-0.001-0.002-0.001-0.004c-0.001,0-0.001-0.003-0.002-0.005    c0-0.002-0.001-0.004-0.002-0.006c-0.001-0.002-0.001-0.004-0.002-0.006c0-0.002-0.001-0.003-0.002-0.007    c-0.001-0.001-0.001-0.003-0.002-0.005c0-0.002-0.002-0.003-0.002-0.007c-0.001,0-0.001-0.003-0.002-0.005    c0-0.001-0.001-0.003-0.002-0.007c-0.001,0-0.001-0.002-0.002-0.006c0,0-0.001-0.003-0.002-0.006    c-0.001,0-0.001-0.002-0.002-0.006c0,0-0.001-0.004-0.002-0.006s-0.001-0.004-0.002-0.006s-0.001-0.004-0.002-0.006    c0-0.002-0.001-0.004-0.002-0.006c-0.001-0.003-0.001-0.004-0.002-0.006c-0.001-0.002-0.001-0.004-0.002-0.006    c0-0.001,0-0.001,0-0.001c-0.001-0.005-0.002-0.008-0.002-0.008c-0.001-0.001-0.002-0.003-0.002-0.005s-0.001-0.003-0.002-0.005    c0,0,0,0,0-0.001c0-0.002-0.001-0.003-0.002-0.005c0,0,0-0.001,0-0.001c0-0.002-0.001-0.003-0.001-0.005c0,0,0-0.001,0-0.001    c0-0.002-0.001-0.003-0.001-0.005l0-0.001c0-0.002-0.001-0.003-0.001-0.005l0-0.001c0-0.002-0.001-0.003-0.001-0.005l0-0.001    c-0.001-0.004-0.002-0.006-0.002-0.006c-0.001-0.004-0.002-0.006-0.002-0.006c0-0.002-0.001-0.004-0.002-0.006    s-0.001-0.004-0.002-0.006s-0.001-0.004-0.002-0.006s-0.001-0.004-0.002-0.006c0-0.002-0.001-0.004-0.002-0.006    s-0.001-0.004-0.002-0.006c0-0.002-0.001-0.004-0.002-0.006c0,0-0.001-0.002-0.001-0.006l0-0.001c0-0.002-0.001-0.003-0.001-0.005    c0,0,0-0.001,0-0.001c0-0.002-0.001-0.004-0.001-0.006c-0.001-0.002-0.001-0.004-0.002-0.006    c-0.552-1.749,0.159-3.712,1.812-4.667c1.912-1.104,4.354-0.459,5.46,1.452l12.637,21.859c2.198,3.791,6.373,6.057,11.166,6.057    c2.642,0,5.281-0.714,7.633-2.063c6.832-3.952,9.525-12.166,5.991-18.304l-7.748-13.359c0-0.001-0.001-0.001-0.001-0.001    c-1.107-1.912-0.456-4.359,1.455-5.467c1.912-1.106,4.359-0.456,5.466,1.454l0.01,0.017c2.196,3.778,6.351,6.032,11.118,6.032    c2.661,0,5.322-0.726,7.697-2.098c6.82-3.959,9.501-12.168,5.972-18.3l-0.004-0.008c-1.103-1.914-0.445-4.359,1.469-5.463    c1.913-1.104,4.359-0.445,5.462,1.468l0,0.001l7.732,13.421c2.193,3.777,6.361,6.039,11.142,6.039c2.658,0,5.31-0.724,7.672-2.093    c3.515-2.01,6.092-5.286,7.092-9c0.87-3.234,0.479-6.518-1.103-9.244l-22.886-39.669c0-0.001,0-0.001,0-0.001l-0.001-0.003    c-1.104-1.913-0.454-4.37,1.459-5.474c1.914-1.106,4.354-0.458,5.458,1.455c0,0.001,0.001,0.002,0.001,0.003l0.006,0.011    c2.196,3.79,6.362,6.041,11.157,6.041c2.654-0.001,5.308-0.715,7.671-2.067c6.803-3.945,9.488-12.151,5.969-18.282l-0.001-0.002    c-0.331-0.574-0.503-1.197-0.53-1.818c-0.001-0.008-0.002-0.016-0.002-0.024c0-0.002,0-0.004,0-0.006s0-0.004,0-0.006    s0-0.004,0-0.006c0-0.005,0-0.008,0-0.013c0,0,0,0-0.001,0c0,0,0-0.004,0-0.006c0,0,0,0,0-0.001c0-0.002,0-0.003,0-0.005    c0,0,0.001-0.002-0.001-0.006v-0.001c0-0.004,0-0.006,0-0.006c0-0.004,0-0.005,0-0.007c0-0.001,0-0.003,0-0.005c0,0,0,0,0-0.001    c0-0.002,0-0.003,0-0.005c0,0,0-0.002,0-0.006c0,0,0-0.004,0-0.006c0-0.001,0-0.002,0-0.002c0-0.004,0-0.006,0-0.006    c-0.001-0.004,0-0.005,0-0.007s0-0.004,0-0.006c0,0,0-0.002,0-0.004c0,0,0-0.001,0-0.002c0-0.004,0-0.005,0-0.007s0-0.004,0-0.006    s0-0.004,0-0.006s0-0.004,0-0.006v-0.003c0-0.004,0-0.005,0-0.007s0-0.004,0-0.006s0-0.004,0-0.006c0,0,0-0.004,0-0.006    s0-0.006,0-0.006c0-0.002,0-0.003,0-0.005v-0.001c0-0.002,0-0.003,0-0.005c0,0,0-0.004,0-0.006s0-0.004,0-0.006s0-0.003,0-0.007    v-0.001c0,0,0-0.003,0-0.005v-0.001c0-0.004,0-0.006,0-0.006c0-0.004,0-0.005,0-0.007c0,0,0-0.003,0-0.005c0,0,0-0.002,0-0.006    v-0.001c0-0.004,0-0.006,0-0.006c0-0.002,0-0.004,0-0.006c0.029-1.355,0.742-2.663,2.001-3.388    c1.915-1.103,4.353-0.453,5.456,1.46l4.248,7.382c2.192,3.788,6.375,6.055,11.182,6.055c2.475,0,4.945-0.622,7.18-1.803    c0.148-0.117,0.305-0.224,0.471-0.318c3.487-1.997,6.061-5.275,7.062-8.994c0.87-3.233,0.48-6.513-1.096-9.235l-14.186-24.538    c-1.106-1.913-0.464-4.382,1.448-5.487c1.912-1.106,4.346-0.476,5.451,1.438c2.205,3.798,6.352,6.042,11.117,6.042    c2.665,0,5.33-0.727,7.706-2.1c6.816-3.95,9.499-12.137,5.976-18.246l-10.263-17.796l-48.257,27.864l1.274,26.968    c0.069,1.471-0.675,2.861-1.938,3.619c-0.039,0.023-0.082,0.04-0.121,0.062c-0.125,0.094-0.254,0.185-0.393,0.264    c-1.276,0.737-2.854,0.713-4.106-0.062l-23.221-14.374L70.762,164.514l51.957,89.979c2.176,3.781,6.327,6.036,11.108,6.036    C136.485,260.528,139.138,259.804,141.498,258.435z"></path><path d="M387.79,337.24c0.02-0.073,0.031-0.183-0.027-0.282l-9.718-16.874c-0.088-0.149-0.267-0.168-0.34-0.168    c-0.083,0-0.161,0.021-0.238,0.066l-5.688,3.281l-73.01,42.139c-0.139,0.124-0.209,0.363-0.121,0.516l9.74,16.813    c0.116,0.208,0.273,0.224,0.337,0.224c0.071,0,0.136-0.018,0.198-0.054l78.667-45.393    C387.717,337.436,387.769,337.322,387.79,337.24z"></path><path d="M380.385,350.904l-56.207,32.446l40.257,87.806c5.826,12.691,19.114,20.576,34.679,20.576    c7.726,0,15.265-1.992,21.804-5.763c10.379-5.99,18.099-16.561,20.648-28.273c2.211-10.153,0.332-20.096-5.289-27.994    L380.385,350.904z M420.952,455.19c-1.511,5.618-5.127,10.322-10.184,13.246c-3.316,1.918-7.085,2.932-10.898,2.932    c-7.773,0-15.032-4.172-18.942-10.888c-5.996-10.451-2.408-23.844,7.985-29.877c3.338-1.905,7.097-2.905,10.894-2.905    c7.8,0,15.063,4.188,18.958,10.93C421.688,443.682,422.465,449.564,420.952,455.19z"></path><path d="M399.807,435.698c-2.408,0-4.795,0.636-6.902,1.839c-6.572,3.815-8.849,12.318-5.05,18.94    c2.47,4.241,7.079,6.891,12.016,6.891c2.409,0,4.793-0.643,6.895-1.857c3.21-1.856,5.505-4.838,6.461-8.397    c0.957-3.558,0.464-7.28-1.388-10.481C409.367,438.354,404.758,435.698,399.807,435.698z"></path></g></g></svg>