<svg xmlns="http://www.w3.org/2000/svg" xmlns:xlink="http://www.w3.org/1999/xlink" width="30px" height="30px" viewBox="0 0 100 100">
    <g transform="translate(50 50) scale(-0.69 0.69) rotate(0) translate(-50 -50)" style="fill:#000000">
        <svg fill="#000000" xmlns="http://www.w3.org/2000/svg" xmlns:xlink="http://www.w3.org/1999/xlink" version="1.1" x="0px" y="0px" viewBox="-55 147 500 500" style="enable-background:new -55 147 500 500;" xml:space="preserve">
            <g>
                <path d="M367.9,399.7c3,1.2,6.3,1.8,9.6,1.8c6.3-0.2,12.2-2.8,16.5-7.3s6.6-10.5,6.5-16.8c-0.2-6.3-2.8-12.1-7.3-16.4L197.4,176   c-4.6-4.3-10.6-6.6-16.9-6.4c-6.3,0.2-12.2,2.8-16.5,7.3c-0.9,0.9-1.6,1.9-2.3,2.8c-27-2.8-52.4-1.4-72.8,4.2   C62.1,191,45,205,40.6,223.2c-4.9,20.2,6.3,42.4,31.6,62.4c1.7,1.3,3.4,2.6,5.2,3.9l-99.8,104.8c-8.8-3.6-19.2-1.7-26.1,5.5   c-9,9.4-8.6,24.3,0.9,33.2l195.8,185c4.4,4.2,10.1,6.4,16.2,6.4c0.2,0,0.4,0,0.6,0c6.3-0.2,12.2-2.8,16.5-7.3   c6.9-7.2,8.3-17.8,4.2-26.3L367.9,399.7z M58.3,227.4c5.5-22.7,47.8-34.9,99.6-30c0.4,2,1,3.9,1.8,5.6L90,276.3   c-2.2-1.6-4.4-3.2-6.5-4.8C64.4,256.3,55.2,240.2,58.3,227.4z M19.2,376.9l73.6-77.3c20.6,12.1,45.6,21.9,72.6,28.4   c13.9,3.3,27.8,5.6,41.3,6.8c1.6,6,4.8,11.7,9.6,16.3c6.5,6.1,14.9,9.4,23.7,9.4c0.3,0,0.6,0,0.9,0c9.2-0.2,17.8-4,24.1-10.7l0,0   c6.3-6.7,9.7-15.4,9.5-24.5c-0.2-9.2-4.1-17.7-10.7-24c-6.7-6.3-15.4-9.6-24.7-9.4c-9.2,0.2-17.8,4-24.1,10.7   c-3.9,4.1-6.6,9-8.1,14.1c-12.2-1.2-24.8-3.3-37.4-6.3c-23.7-5.7-45.7-14-64-24.3l72.5-76c3.4-3.6,3.3-9.3-0.3-12.8l-0.4-0.4   c-1-1-1.6-2.3-1.7-3.8c0-1.5,0.5-2.8,1.5-3.9c1-1,2.3-1.6,3.8-1.7c1.5,0,2.8,0.5,3.9,1.5l195.8,185c1,1,1.6,2.3,1.7,3.8   c0,1.5-0.5,2.8-1.5,3.9c-1,1-2.3,1.6-3.8,1.7c-1.5,0-2.8-0.5-3.9-1.5l-0.4-0.4c-3.6-3.4-9.4-3.3-12.8,0.3l-3.4,3.6   c-80.5,5.7-127.1,0.5-172.2-4.5C138.3,375.8,94.5,370.9,19.2,376.9z M249.6,326.1c-0.3-5-4.5-8.8-9.5-8.6   c-4.5,0.2-9.1,0.3-13.8,0.2c0.6-1,1.3-1.9,2.1-2.7c3-3.2,7.1-5,11.4-5.1c0.1,0,0.3,0,0.4,0c4.2,0,8.2,1.6,11.2,4.5   c3.2,3,5,7,5.1,11.4c0.1,4.3-1.5,8.5-4.5,11.6c-3,3.2-7.1,5-11.4,5.1c-4.4,0.1-8.5-1.5-11.7-4.5c-0.7-0.7-1.4-1.4-1.9-2.2   c0.9,0,1.8,0,2.7,0c3.8,0,7.6-0.1,11.3-0.3C246,335.4,249.8,331.1,249.6,326.1z"></path><path d="M438.9,492l-39.4-75.8c-1.6-3-4.7-4.9-8.1-4.9s-6.5,1.9-8.1,4.9L344,492c-8.6,16.6-8.1,36.2,1.3,52.4   c9.2,15.8,25.6,25.7,43.7,26.4c0.8,0,1.6,0,2.4,0s1.6,0,2.4,0c18.2-0.7,34.5-10.6,43.7-26.4C447,528.1,447.5,508.6,438.9,492z"></path>
            </g>
        </svg>
    </g>
</svg>