<svg width="100%" height="100%" viewBox="0 0 24 24" fill="none" xmlns="http://www.w3.org/2000/svg"><rect width="24" height="24" fill="none" rx="0" ry="0"></rect><path fill-rule="evenodd" clip-rule="evenodd" d="M12 1C9.23858 1 7 3.23858 7 6V12H8.5V11.5V8V6C8.5 4.067 10.067 2.5 12 2.5C13.933 2.5 15.5 4.067 15.5 6V8H17V6C17 3.23858 14.7614 1 12 1Z" fill="#1ebbcc"></path><path fill-rule="evenodd" clip-rule="evenodd" d="M7 11C5.89543 11 5 11.8954 5 13V21C5 22.1046 5.89543 23 7 23H17C18.1046 23 19 22.1046 19 21V13C19 11.8954 18.1046 11 17 11H7ZM7.2 12.2C6.64772 12.2 6.2 12.6477 6.2 13.2V14H17.8V13.2C17.8 12.6477 17.3523 12.2 16.8 12.2H7.2ZM17.8 15.2H6.2V20.8C6.2 21.3523 6.64771 21.8 7.2 21.8H16.8C17.3523 21.8 17.8 21.3523 17.8 20.8V15.2ZM11 19C11 18.4477 11.4477 18 12 18C12.5523 18 13 18.4477 13 19V20C13 20.5523 12.5523 21 12 21C11.4477 21 11 20.5523 11 20V19Z" fill="#1ebbcc"></path><path fill-rule="evenodd" clip-rule="evenodd" d="M5 14H11H19V15.2H16H10.5H5V14Z" fill="black" fill-opacity="0.2"></path></svg>